<?xml version="1.0" encoding="UTF-8"?>
<svg width="20px" height="20px" viewBox="0 0 20 20" version="1.1" xmlns="http://www.w3.org/2000/svg" xmlns:xlink="http://www.w3.org/1999/xlink">
    <!-- Generator: Sketch 53.2 (72643) - https://sketchapp.com -->
    <title>icon_google_filled</title>
    <desc>Created with Sketch.</desc>
    <defs>
        <rect id="path-1" x="0" y="2.27373675e-13" width="20" height="20"></rect>
    </defs>
    <g id="icon_google_filled" stroke="none" stroke-width="1" fill="none" fill-rule="evenodd">
        <g id="Group-4">
            <mask id="mask-2" fill="white">
                <use xlink:href="#path-1"></use>
            </mask>
            <g id="Mask"></g>
            <g id="Group-7" mask="url(#mask-2)">
                <g transform="translate(3.000000, 3.000000)" id="Shape">
                    <path d="M13.72,7.15909091 C13.72,6.66272727 13.6754545,6.18545455 13.5927273,5.72727273 L7,5.72727273 L7,8.435 L10.7672727,8.435 C10.605,9.31 10.1118182,10.0513636 9.37045455,10.5477273 L9.37045455,12.3040909 L11.6327273,12.3040909 C12.9563636,11.0854545 13.72,9.29090909 13.72,7.15909091 L13.72,7.15909091 Z" fill="#4285F4" fill-rule="evenodd"></path>
                    <path d="M7,14 C8.89,14 10.4745455,13.3731818 11.6327273,12.3040909 L9.37045455,10.5477273 C8.74363636,10.9677273 7.94181818,11.2159091 7,11.2159091 C5.17681818,11.2159091 3.63363636,9.98454545 3.08318182,8.33 L0.744545455,8.33 L0.744545455,10.1436364 C1.89636364,12.4313636 4.26363636,14 7,14 L7,14 Z" fill="#34A853" fill-rule="evenodd"></path>
                    <path d="M3.08318182,8.33 C2.94318182,7.91 2.86363636,7.46136364 2.86363636,7 C2.86363636,6.53863636 2.94318182,6.09 3.08318182,5.67 L3.08318182,3.85636364 L0.744545455,3.85636364 C0.270454545,4.80136364 -4.04121181e-14,5.87045455 -4.04121181e-14,7 C-4.04121181e-14,8.12954545 0.270454545,9.19863636 0.744545455,10.1436364 L3.08318182,8.33 L3.08318182,8.33 Z" fill="#FBBC05" fill-rule="evenodd"></path>
                    <path d="M7,2.78409091 C8.02772727,2.78409091 8.95045455,3.13727273 9.67590909,3.83090909 L11.6836364,1.82318182 C10.4713636,0.693636364 8.88681818,-1.86517468e-14 7,-1.86517468e-14 C4.26363636,-1.86517468e-14 1.89636364,1.56863636 0.744545455,3.85636364 L3.08318182,5.67 C3.63363636,4.01545455 5.17681818,2.78409091 7,2.78409091 L7,2.78409091 Z" fill="#EA4335" fill-rule="evenodd"></path>
                    <polygon fill="none" points="0 0 14 0 14 14 0 14"></polygon>
                </g>
            </g>
        </g>
    </g>
</svg>